<svg xmlns="http://www.w3.org/2000/svg" xmlns:xlink="http://www.w3.org/1999/xlink" viewBox="0 0 45 51.7"><defs><style>.cls-1{fill:url(#Propio1);}.cls-2,.cls-3,.cls-4{stroke-miterlimit:10;}.cls-2{fill:url(#Propio1-2);stroke:url(#Propio1-3);}.cls-3{fill:url(#Propio1-4);stroke:url(#Propio1-5);}.cls-4{fill:url(#Propio1-6);stroke:url(#Propio1-7);}</style><linearGradient id="Propio1" y1="30.65" x2="45" y2="30.65" gradientUnits="userSpaceOnUse"><stop offset="0" stop-color="#1f8bef"/><stop offset="0.19" stop-color="#2394ef"/><stop offset="0.49" stop-color="#2dacf0"/><stop offset="0.87" stop-color="#3ed4f1"/><stop offset="1" stop-color="#45e3f1"/></linearGradient><linearGradient id="Propio1-2" x1="27" y1="3.55" x2="30" y2="3.55" xlink:href="#Propio1"/><linearGradient id="Propio1-3" x1="26.5" y1="3.55" x2="30.5" y2="3.55" xlink:href="#Propio1"/><linearGradient id="Propio1-4" x1="17.45" y1="7.11" x2="22.58" y2="7.11" xlink:href="#Propio1"/><linearGradient id="Propio1-5" x1="16.95" y1="7.11" x2="23.08" y2="7.11" xlink:href="#Propio1"/><linearGradient id="Propio1-6" x1="34.42" y1="7.11" x2="39.55" y2="7.11" xlink:href="#Propio1"/><linearGradient id="Propio1-7" x1="33.92" y1="7.11" x2="40.05" y2="7.11" xlink:href="#Propio1"/></defs><title>main-button-follow</title><g id="Capa_2" data-name="Capa 2"><g id="Capa_8" data-name="Capa 8"><path class="cls-1" d="M43.85,32.2a4.5,4.5,0,0,0-3.35-7.5H31.77A29.25,29.25,0,0,0,33,17.1V15.6a6,6,0,0,0-6-6H25.5a1.49,1.49,0,0,0-1.45,1.14L23.23,14c-1.15,4.57-4.78,9.62-8.54,10.54A4.51,4.51,0,0,0,10.5,21.7h-9A1.5,1.5,0,0,0,0,23.2v27a1.5,1.5,0,0,0,1.5,1.5h9a4.5,4.5,0,0,0,4.06-2.56l5.16,1.71a16.48,16.48,0,0,0,5.21.85H37.5A4.51,4.51,0,0,0,42,47.2a4.34,4.34,0,0,0-.32-1.66,4.49,4.49,0,0,0,2.17-7.34,4.46,4.46,0,0,0,1.15-3A4.51,4.51,0,0,0,43.85,32.2ZM12,47.2a1.5,1.5,0,0,1-1.5,1.5H3v-24h7.5A1.5,1.5,0,0,1,12,26.2ZM37.5,33.7h3a1.5,1.5,0,0,1,0,3h-3a1.5,1.5,0,0,0,0,3h3a1.5,1.5,0,0,1,0,3h-3a1.5,1.5,0,0,0,0,3,1.5,1.5,0,0,1,0,3H24.93A13.49,13.49,0,0,1,20.66,48L15,46.12V27.56a12.13,12.13,0,0,0,6.74-4.38,22,22,0,0,0,4.4-8.45l.53-2.13H27a3,3,0,0,1,3,3v1.5a23.62,23.62,0,0,1-1.44,7.6H25.5a1.5,1.5,0,0,0,0,3h15a1.5,1.5,0,0,1,0,3h-3a1.5,1.5,0,0,0,0,3Z"/><path class="cls-2" d="M28.5.5A1.5,1.5,0,0,0,27,2V5.1a1.5,1.5,0,1,0,3,0V2A1.5,1.5,0,0,0,28.5.5Z"/><path class="cls-3" d="M22.14,7.11,20,5a1.5,1.5,0,0,0-2.12,2.12L20,9.24a1.51,1.51,0,1,0,2.13-2.13Z"/><path class="cls-4" d="M39.11,5A1.51,1.51,0,0,0,37,5L34.86,7.11A1.51,1.51,0,1,0,37,9.24l2.12-2.13A1.51,1.51,0,0,0,39.11,5Z"/></g></g></svg>