<svg xmlns="http://www.w3.org/2000/svg" xmlns:xlink="http://www.w3.org/1999/xlink" viewBox="0 0 47.2 45"><defs><style>.cls-1{fill:url(#Propio1);}</style><linearGradient id="Propio1" x1="23.6" x2="23.6" y2="45" gradientUnits="userSpaceOnUse"><stop offset="0" stop-color="#1f8bef"/><stop offset="0.19" stop-color="#2394ef"/><stop offset="0.49" stop-color="#2dacf0"/><stop offset="0.87" stop-color="#3ed4f1"/><stop offset="1" stop-color="#45e3f1"/></linearGradient></defs><title>main-button-mision</title><g id="Capa_2" data-name="Capa 2"><g id="Capa_4" data-name="Capa 4"><path class="cls-1" d="M23.68,6.78l4.53,9.36.68,1.42,1.56.24,10.28,1.57-7.5,7.2-1.14,1.1.26,1.55L34,39.48l-9.16-4.91-1.39-.74-1.41.72-9.24,4.77,1.84-10.24.28-1.55-1.12-1.11L6.43,19.1l10.3-1.41,1.56-.21L19,16.07l4.68-9.29M23.73,0,16.32,14.72,0,17,11.71,28.55,8.8,44.77l14.64-7.55L38,45,35.31,28.74,47.2,17.33l-16.29-2.5L23.73,0Z"/></g></g></svg>