<svg xmlns="http://www.w3.org/2000/svg" xmlns:xlink="http://www.w3.org/1999/xlink" viewBox="0 0 58 57.5"><defs><style>.cls-1,.cls-2,.cls-3,.cls-4,.cls-5,.cls-6,.cls-7,.cls-8,.cls-9{stroke-miterlimit:10;}.cls-1{fill:url(#Propio1);stroke:url(#Propio1-2);}.cls-2,.cls-3,.cls-4,.cls-5,.cls-6,.cls-7,.cls-8,.cls-9{fill:none;stroke-width:2px;}.cls-2,.cls-3,.cls-4,.cls-5{stroke-linecap:round;}.cls-2{stroke:url(#Propio1-3);}.cls-3{stroke:url(#Propio1-4);}.cls-4{stroke:url(#Propio1-5);}.cls-5{stroke:url(#Propio1-6);}.cls-6{stroke:url(#Propio1-7);}.cls-7{stroke:url(#Propio1-8);}.cls-8{stroke:url(#Propio1-9);}.cls-9{stroke:url(#Propio1-10);}</style><linearGradient id="Propio1" x1="9" y1="28.5" x2="49" y2="28.5" gradientUnits="userSpaceOnUse"><stop offset="0" stop-color="#1f8bef"/><stop offset="0.19" stop-color="#2394ef"/><stop offset="0.49" stop-color="#2dacf0"/><stop offset="0.87" stop-color="#3ed4f1"/><stop offset="1" stop-color="#45e3f1"/></linearGradient><linearGradient id="Propio1-2" x1="8.5" x2="49.5" xlink:href="#Propio1"/><linearGradient id="Propio1-3" x1="3.99" y1="44" x2="23" y2="44" xlink:href="#Propio1"/><linearGradient id="Propio1-4" x1="35" y1="44" x2="54.01" y2="44" xlink:href="#Propio1"/><linearGradient id="Propio1-5" x1="35" y1="13" x2="54.01" y2="13" xlink:href="#Propio1"/><linearGradient id="Propio1-6" x1="3.99" y1="13" x2="23" y2="13" xlink:href="#Propio1"/><linearGradient id="Propio1-7" x1="25.5" y1="3.5" x2="32.5" y2="3.5" xlink:href="#Propio1"/><linearGradient id="Propio1-8" x1="26" y1="54" x2="33" y2="54" xlink:href="#Propio1"/><linearGradient id="Propio1-9" x1="182.01" y1="263.7" x2="189.01" y2="263.7" gradientTransform="matrix(-0.51, -0.86, 0.86, -0.51, -128.33, 322.73)" xlink:href="#Propio1"/><linearGradient id="Propio1-10" x1="155.94" y1="307.53" x2="162.94" y2="307.53" gradientTransform="matrix(-0.51, -0.86, 0.86, -0.51, -128.33, 322.73)" xlink:href="#Propio1"/></defs><title>main-button-vision</title><g id="Capa_2" data-name="Capa 2"><g id="Capa_5" data-name="Capa 5"><path class="cls-1" d="M29,8.5A20,20,0,0,0,10.62,20.63l-.25.08.1.29A20,20,0,1,0,29,8.5ZM44.69,38.58l-1-1V35.17a.6.6,0,0,0-.07-.3L41,29.68V27.17a.67.67,0,0,0-.3-.56l-2-1.33a.62.62,0,0,0-.53-.09l-2.45.61L31.61,24l-.57-4,1.57-1.57H36l1.13,1.7a.63.63,0,0,0,.45.29l4,.67a.6.6,0,0,0,.32,0l3.68-1.23A18.59,18.59,0,0,1,44.69,38.58ZM42,15.07l-1.09.72-3-.6-2-.66a.67.67,0,0,0-.37,0L33,15.14l-1.09-.36.81-1.61H35a.78.78,0,0,0,.3-.07l2.31-1.16A19.1,19.1,0,0,1,42,15.07ZM21.7,11.32l1.6,1.07a.64.64,0,0,0,.26.1l3.23.54-.31.94-1.69.57a.67.67,0,0,0-.36.28L22.52,18l-3.08,1.85-4.53.65a.66.66,0,0,0-.58.66v2a.67.67,0,0,0,.2.47l1.14,1.14v1.14l-2.78-1.85-1-3A18.77,18.77,0,0,1,21.7,11.32ZM19.8,33.18l-3-.6-1.12-2.24V28.78l2.48-2.49.92,1.84a.67.67,0,0,0,.6.37H24l1.8,3a.67.67,0,0,0,.57.32h1.86l-.47,2.34L25.2,36.7a.63.63,0,0,0-.2.47v1.66l-2.4,1.8a.68.68,0,0,0-.27.54v2.4l-.82-.27-1.18-2.93V33.83A.66.66,0,0,0,19.8,33.18Zm-2,10.25a18.65,18.65,0,0,1-6.65-20.38l.55,1.66a.68.68,0,0,0,.26.34l3.33,2.22-.76.76a.63.63,0,0,0-.2.47v2a.78.78,0,0,0,.07.3l1.34,2.66a.65.65,0,0,0,.46.36l2.8.56V40.5a.74.74,0,0,0,.05.25l1.34,3.33a.7.7,0,0,0,.4.39l2,.66a.78.78,0,0,0,.21,0,.67.67,0,0,0,.67-.67v-3l2.4-1.8a.65.65,0,0,0,.26-.53V37.44L28.81,35a.7.7,0,0,0,.18-.34l.66-3.33a.67.67,0,0,0-.52-.79H26.71l-1.8-3a.67.67,0,0,0-.58-.32H20.08l-1.15-2.3a.64.64,0,0,0-.49-.36.62.62,0,0,0-.57.19l-.87.86V24.5a.67.67,0,0,0-.19-.47l-1.14-1.14V21.74l4.09-.58a.54.54,0,0,0,.25-.09l3.33-2a.51.51,0,0,0,.23-.23l1.88-3.12,1.76-.59a.63.63,0,0,0,.42-.42l.67-2a.66.66,0,0,0-.42-.84l-.1,0-3.86-.64-.68-.45a18.55,18.55,0,0,1,12.82.48l-1.22.6H32.33a.68.68,0,0,0-.6.37L30.4,14.87a.66.66,0,0,0,.3.89l.09,0,2,.67a.67.67,0,0,0,.37,0l2.48-.62,1.81.61.08,0,3.34.66a.64.64,0,0,0,.5-.1l1.52-1a19.45,19.45,0,0,1,2,2.68l-3.28,1.1-3.55-.6-1.17-1.76a.68.68,0,0,0-.56-.29h-4a.7.7,0,0,0-.47.19l-2,2a.67.67,0,0,0-.19.57l.67,4.66a.66.66,0,0,0,.4.52l4.67,2a.67.67,0,0,0,.42,0l2.38-.6,1.46,1v2.31a.73.73,0,0,0,.06.3l2.6,5.19v2.51a.63.63,0,0,0,.2.47l1.39,1.4A18.66,18.66,0,0,1,17.8,43.43Z"/><path class="cls-2" d="M22,52.51a25.05,25.05,0,0,1-17-17"/><path class="cls-3" d="M53,35.5a25.05,25.05,0,0,1-17,17"/><path class="cls-4" d="M36,4.49a25.05,25.05,0,0,1,17,17"/><path class="cls-5" d="M5,21.5a25.05,25.05,0,0,1,17-17"/><circle class="cls-6" cx="29" cy="3.5" r="2.5"/><circle class="cls-7" cx="29.5" cy="54" r="2.5"/><circle class="cls-8" cx="3.5" cy="28.5" r="2.5"/><circle class="cls-9" cx="54.5" cy="28.5" r="2.5"/></g></g></svg>