<svg xmlns="http://www.w3.org/2000/svg" xmlns:xlink="http://www.w3.org/1999/xlink" viewBox="0 0 45.99 46"><defs><style>.cls-1{stroke-miterlimit:10;fill:url(#Propio1);stroke:url(#Propio1-2);}</style><linearGradient id="Propio1" x1="0.5" y1="23" x2="45.49" y2="23" gradientUnits="userSpaceOnUse"><stop offset="0" stop-color="#1f8bef"/><stop offset="0.19" stop-color="#2394ef"/><stop offset="0.49" stop-color="#2dacf0"/><stop offset="0.87" stop-color="#3ed4f1"/><stop offset="1" stop-color="#45e3f1"/></linearGradient><linearGradient id="Propio1-2" x1="0" y1="23" x2="45.99" y2="23" xlink:href="#Propio1"/></defs><title>main-button-partner</title><g id="Capa_2" data-name="Capa 2"><g id="Capa_7" data-name="Capa 7"><path class="cls-1" d="M39,32.49a6.47,6.47,0,0,0-3.93,1.33l-6.89-6.89A6.47,6.47,0,0,0,29.5,23a6.78,6.78,0,0,0-.32-2l7.08-3.44a5.09,5.09,0,1,0-1-3,4.93,4.93,0,0,0,.2,1.4L28.41,19.4a6.54,6.54,0,0,0-4.54-2.84V14.22a3,3,0,1,0-1.75,0v2.34a6.38,6.38,0,0,0-3.06,1.27l-5.68-5.68a7.23,7.23,0,0,0,1.28-6.34.88.88,0,1,0-1.7.46,5.47,5.47,0,0,1-1.39,5.28h0v0A5.45,5.45,0,0,1,3.85,3.86,5.38,5.38,0,0,1,9,2.41.88.88,0,0,0,9.36.69a7.21,7.21,0,1,0,2.78,12.7l5.68,5.68a6.5,6.5,0,0,0,9.11,9.11l6.88,6.88A6.5,6.5,0,1,0,39,32.49ZM40.4,11.22a3.34,3.34,0,1,1-3.34,3.34A3.35,3.35,0,0,1,40.4,11.22Zm-18.64.15A1.24,1.24,0,1,1,23,12.6,1.24,1.24,0,0,1,21.76,11.37ZM23,27.75A4.75,4.75,0,1,1,27.74,23,4.75,4.75,0,0,1,23,27.75Zm16,16A4.75,4.75,0,1,1,43.74,39,4.75,4.75,0,0,1,39,43.74Z"/></g></g></svg>